<?xml version="1.0" encoding="utf-8"?>
<svg viewBox="127.40000915527344 98.50003051757812 179.79994201660156 178.0999755859375" width="179.79994201660156" height="178.0999755859375" xmlns="http://www.w3.org/2000/svg"><g transform="matrix(1, 0, 0, 1, 1.1368683772161603e-13, 0)"><path class="st0" d="M134.7,271.2c3.6,3.6,8.3,5.4,12.9,5.4c4.7,0,9.4-1.8,12.9-5.4l56.9-56.9l56.9,56.9c3.6,3.6,8.3,5.4,12.9,5.4&#10;&#9;c4.7,0,9.4-1.8,12.9-5.4c7.1-7.1,7.1-18.7,0-25.9l-56.9-56.9l56.9-56.9c7.1-7.1,7.1-18.7,0-25.9c-7.1-7.1-18.7-7.1-25.9,0&#10;&#9;l-56.9,56.9l-56.9-56.9c-7.1-7.1-18.7-7.1-25.9,0c-7.1,7.1-7.1,18.7,0,25.9l56.9,56.9l-56.9,56.9C127.6,252.4,127.6,264,134.7,271.2&#10;&#9;L134.7,271.2z M134.7,271.2" style="fill: rgb(204, 204, 204); opacity: 1;" transform="matrix(1, 0, 0, 1, 1.1368683772161603e-13, 0)"/></g></svg>